<?xml version="1.0" encoding="UTF-8"?>
<!DOCTYPE svg PUBLIC "-//W3C//DTD SVG 1.1//EN" "http://www.w3.org/Graphics/SVG/1.1/DTD/svg11.dtd">
<svg xmlns="http://www.w3.org/2000/svg" version="1.1" width="24px" height="24px" style="shape-rendering:geometricPrecision; text-rendering:geometricPrecision; image-rendering:optimizeQuality; fill-rule:evenodd; clip-rule:evenodd" xmlns:xlink="http://www.w3.org/1999/xlink">
<g><path style="opacity:0.962" fill="#38bf5c" d="M 21.5,5.5 C 17.5,6.16667 13.5,6.83333 9.5,7.5C 6.94932,4.7699 5.61599,5.43657 5.5,9.5C 4.25971,8.34118 2.92637,7.34118 1.5,6.5C 4.82675,0.787919 9.82675,-1.04541 16.5,1C 18.6605,1.9959 20.3272,3.4959 21.5,5.5 Z"/></g>
<g><path style="opacity:0.954" fill="#21ae48" d="M 21.5,5.5 C 22.1667,6.5 22.8333,7.5 23.5,8.5C 23.5,10.8333 23.5,13.1667 23.5,15.5C 22.8333,15.5 22.5,15.8333 22.5,16.5C 20.8333,16.5 19.1667,16.5 17.5,16.5C 16.8681,13.5081 15.2015,12.8414 12.5,14.5C 9.01267,13.0661 8.01267,10.7328 9.5,7.5C 13.5,6.83333 17.5,6.16667 21.5,5.5 Z"/></g>
<g><path style="opacity:1" fill="#ecf8ef" d="M 9.5,7.5 C 8.01267,10.7328 9.01267,13.0661 12.5,14.5C 15.2015,12.8414 16.8681,13.5081 17.5,16.5C 11.656,17.7075 7.65601,15.3741 5.5,9.5C 5.61599,5.43657 6.94932,4.7699 9.5,7.5 Z"/></g>
<g><path style="opacity:0.956" fill="#1fa745" d="M 1.5,6.5 C 2.92637,7.34118 4.25971,8.34118 5.5,9.5C 7.65601,15.3741 11.656,17.7075 17.5,16.5C 19.1667,16.5 20.8333,16.5 22.5,16.5C 21.1385,19.8616 18.8051,22.1949 15.5,23.5C 12.8333,23.5 10.1667,23.5 7.5,23.5C 3.6957,21.034 1.02903,17.7007 -0.5,13.5C -0.5,12.5 -0.5,11.5 -0.5,10.5C 0.166667,9.16667 0.833333,7.83333 1.5,6.5 Z"/></g>
</svg>
