<svg id="instagram_1_" data-name="instagram (1)" xmlns="http://www.w3.org/2000/svg" xmlns:xlink="http://www.w3.org/1999/xlink" width="31.245" height="31.245" viewBox="0 0 31.245 31.245">
  <defs>
    <linearGradient id="linear-gradient" x1="-0.121" y1="0.916" x2="-0.15" gradientUnits="objectBoundingBox">
      <stop offset="0" stop-color="#df9a3d"/>
      <stop offset="0.653" stop-color="#b2176e"/>
      <stop offset="1" stop-color="#7123c2"/>
    </linearGradient>
  </defs>
  <circle id="Ellipse_137" data-name="Ellipse 137" cx="13" cy="13" r="13" transform="translate(3 3)" fill="#fff"/>
  <path id="Path_255" data-name="Path 255" d="M212.98,209.99a2.99,2.99,0,1,1-2.99-2.99A2.99,2.99,0,0,1,212.98,209.99Zm0,0" transform="translate(-194.368 -194.368)" fill="url(#linear-gradient)"/>
  <path id="Path_256" data-name="Path 256" d="M149.832,137.552a2.971,2.971,0,0,0-1.7-1.7,4.964,4.964,0,0,0-1.666-.309c-.946-.043-1.23-.052-3.625-.052s-2.679.009-3.625.052a4.967,4.967,0,0,0-1.666.309,2.972,2.972,0,0,0-1.7,1.7,4.965,4.965,0,0,0-.309,1.666c-.043.946-.052,1.23-.052,3.625s.009,2.679.052,3.625a4.964,4.964,0,0,0,.309,1.666,2.971,2.971,0,0,0,1.7,1.7,4.957,4.957,0,0,0,1.666.309c.946.043,1.229.052,3.625.052s2.679-.009,3.625-.052a4.957,4.957,0,0,0,1.666-.309,2.971,2.971,0,0,0,1.7-1.7,4.969,4.969,0,0,0,.309-1.666c.043-.946.052-1.23.052-3.625s-.009-2.679-.052-3.625A4.957,4.957,0,0,0,149.832,137.552Zm-6.993,9.9a4.606,4.606,0,1,1,4.606-4.606A4.606,4.606,0,0,1,142.839,147.449Zm4.789-8.319a1.077,1.077,0,1,1,1.077-1.077A1.077,1.077,0,0,1,147.628,139.13Zm0,0" transform="translate(-127.216 -127.22)" fill="url(#linear-gradient)"/>
  <path id="Path_257" data-name="Path 257" d="M15.623,0A15.623,15.623,0,1,0,31.245,15.623,15.624,15.624,0,0,0,15.623,0Zm8.917,19.321a6.582,6.582,0,0,1-.417,2.178A4.587,4.587,0,0,1,21.5,24.122a6.586,6.586,0,0,1-2.177.417c-.957.044-1.262.054-3.7.054s-2.742-.01-3.7-.054a6.586,6.586,0,0,1-2.177-.417A4.587,4.587,0,0,1,7.123,21.5a6.58,6.58,0,0,1-.417-2.177c-.044-.957-.054-1.262-.054-3.7s.01-2.742.054-3.7a6.582,6.582,0,0,1,.417-2.178A4.59,4.59,0,0,1,9.746,7.123a6.588,6.588,0,0,1,2.178-.417c.957-.044,1.262-.054,3.7-.054s2.742.01,3.7.054a6.589,6.589,0,0,1,2.178.416,4.588,4.588,0,0,1,2.624,2.624,6.581,6.581,0,0,1,.417,2.178c.044.957.054,1.262.054,3.7S24.583,18.364,24.539,19.321Zm0,0" fill="url(#linear-gradient)"/>
</svg>
